<svg version="1.1" id="Layer_1" xmlns="http://www.w3.org/2000/svg" xmlns:xlink="http://www.w3.org/1999/xlink" x="0px" y="0px"
	 width="100%" viewBox="0 0 654 519" enable-background="new 0 0 654 519" xml:space="preserve">
<path fill="#0E5846" opacity="1.000000" stroke="none" 
	d="
M451.000000,520.000000 
	C300.666656,520.000000 150.833328,520.000000 1.000000,520.000000 
	C1.000000,347.000000 1.000000,174.000000 1.000000,1.000000 
	C219.000000,1.000000 437.000000,1.000000 655.000000,1.000000 
	C655.000000,174.000000 655.000000,347.000000 655.000000,520.000000 
	C587.166687,520.000000 519.333313,520.000000 451.000000,520.000000 
M231.983414,250.577744 
	C252.076813,288.087311 283.218353,308.911957 325.873016,309.901215 
	C366.439514,310.842010 397.955383,292.956055 419.424011,258.622467 
	C442.998199,220.921631 439.648743,171.118530 412.152954,137.251740 
	C382.836609,101.142586 335.116119,87.314941 292.430786,102.560684 
	C231.964417,124.157204 204.111053,191.685379 231.983414,250.577744 
M237.107986,346.352386 
	C236.279190,345.801819 235.485779,344.839691 234.616089,344.764893 
	C226.737320,344.087372 218.848587,343.485962 210.950531,343.149292 
	C210.327805,343.122772 209.043549,345.246063 209.029175,346.382385 
	C208.884354,357.848877 209.004303,369.318390 208.905563,380.785828 
	C208.870773,384.824738 211.596909,384.199310 214.039047,384.221680 
	C216.538010,384.244568 219.289230,384.690552 219.086777,380.697784 
	C218.952271,378.045380 218.909607,375.367157 219.138260,372.727570 
	C219.233536,371.627899 220.141052,370.598572 220.679230,369.537262 
	C221.736252,370.168549 223.161041,370.554993 223.776810,371.480011 
	C225.242325,373.681519 226.322815,376.139008 227.563339,378.490692 
	C231.043442,385.088013 232.215866,385.546265 240.677078,383.324493 
	C238.232666,378.457550 235.825409,373.664581 233.481339,368.997437 
	C242.498993,361.541290 243.632370,354.891998 237.107986,346.352386 
M379.542603,353.569641 
	C379.542816,361.552582 379.544434,369.535492 379.542816,377.518433 
	C379.541412,384.444946 379.540405,384.461121 386.291595,384.196716 
	C387.244507,384.159424 388.187683,383.874420 388.940308,383.739105 
	C389.168854,383.318054 389.309875,383.177368 389.314392,383.032410 
	C389.417542,379.718506 389.360168,376.390350 389.671600,373.096893 
	C389.789124,371.854156 390.753296,370.691498 391.331543,369.492340 
	C392.442719,370.318756 393.862000,370.935272 394.598846,372.016754 
	C395.994690,374.065430 396.994507,376.383209 398.166809,378.584961 
	C401.541107,384.922272 403.545532,385.667358 411.230591,383.158539 
	C408.795044,378.438599 406.385498,373.768982 403.937958,369.025818 
	C404.906158,368.220856 405.519928,367.696259 406.148590,367.190155 
	C411.141205,363.171051 412.919403,357.934814 411.191772,352.183533 
	C409.434357,346.333160 405.210480,343.580963 399.368011,343.141937 
	C396.058929,342.893250 392.724426,342.939423 389.401154,342.931396 
	C379.542358,342.907623 379.542328,342.922882 379.542603,353.569641 
M277.857239,344.543152 
	C277.429688,344.083374 277.008545,343.229034 276.573669,343.222015 
	C267.772034,343.079773 258.967377,342.952118 250.168365,343.107513 
	C249.355240,343.121857 247.899918,345.051208 247.884918,346.107605 
	C247.719589,357.743439 247.720413,369.383362 247.881958,381.019318 
	C247.896713,382.081757 249.313187,384.020142 250.114731,384.039154 
	C259.201538,384.255249 268.295380,384.176239 277.253693,384.176239 
	C278.948181,375.481323 278.725800,375.185974 271.043152,375.182739 
	C267.884216,375.181396 264.720276,375.076385 261.567810,375.219879 
	C258.774109,375.347046 257.780060,374.225494 257.762604,371.434540 
	C257.744598,368.554901 258.487579,367.103058 261.676697,367.254944 
	C265.750488,367.448975 269.840485,367.302002 273.937378,367.302002 
	C273.937378,363.867065 273.937378,361.298645 273.937378,358.271179 
	C269.759857,358.271179 265.963135,358.256470 262.166626,358.276794 
	C259.919678,358.288849 257.284637,358.342560 258.051117,355.133270 
	C258.341034,353.919464 260.504333,352.562592 261.972595,352.345459 
	C264.900787,351.912445 267.938873,352.226349 270.931549,352.225098 
	C277.998810,352.222076 277.998810,352.220459 277.857239,344.543152 
M446.388397,343.023285 
	C438.391235,342.986389 430.390228,342.813507 422.400543,343.039551 
	C420.983246,343.079651 418.421936,344.754272 418.401215,345.717316 
	C418.130066,358.338470 418.220917,370.967407 418.220917,384.236694 
	C426.204071,384.236694 433.659088,384.237915 441.114075,384.236359 
	C448.990814,384.234741 449.688721,383.282135 447.295258,375.068085 
	C441.182587,375.068085 434.908203,375.068085 428.455200,375.068085 
	C428.455200,372.326843 428.455200,370.120667 428.455200,367.314697 
	C431.958221,367.314697 435.082550,367.317383 438.206848,367.314178 
	C445.579224,367.306580 446.259583,366.290253 443.782806,358.163147 
	C438.874512,358.163147 433.778229,358.163147 428.702484,358.163147 
	C427.382172,353.919525 428.227875,351.931488 432.575684,352.200317 
	C435.729797,352.395325 438.905792,352.239777 442.072052,352.234009 
	C448.897552,352.221527 450.101562,350.087494 446.388397,343.023285 
M295.601593,384.734711 
	C298.417877,384.853729 301.269043,385.310150 304.043427,385.023468 
	C310.374329,384.369293 315.846527,379.692688 316.738831,374.620087 
	C317.602112,369.712311 315.022675,365.476593 308.733429,362.106232 
	C305.368073,360.302734 301.668396,359.110626 298.355103,357.228149 
	C296.893158,356.397583 296.016632,354.536621 294.874329,353.143463 
	C296.817932,352.665253 298.741882,352.010101 300.714264,351.790497 
	C301.577148,351.694489 302.582153,352.411316 303.449249,352.891479 
	C309.732269,356.370636 309.968262,356.321503 314.494659,350.148682 
	C310.401306,344.137878 306.108795,342.105011 297.936218,342.306824 
	C291.091797,342.475830 285.694000,345.985535 284.294861,351.176575 
	C282.952667,356.156403 285.445587,360.569550 292.012726,364.221466 
	C295.933990,366.402008 300.100800,368.140015 304.031036,370.305939 
	C305.021545,370.851807 306.344971,372.652832 306.084595,373.218750 
	C305.557526,374.364197 303.984467,375.869446 302.961243,375.785309 
	C300.067688,375.547363 297.138123,374.838715 294.407715,373.819794 
	C292.319183,373.040344 290.512238,371.506287 288.272736,370.117279 
	C286.407959,372.584869 284.741058,374.790649 282.234650,378.107300 
	C286.787140,380.414764 290.812469,382.454987 295.601593,384.734711 
M352.687958,347.861176 
	C349.662872,346.308868 346.764343,343.845184 343.584991,343.403625 
	C337.862640,342.608917 331.961761,342.824188 326.160767,343.117676 
	C325.075439,343.172607 323.294464,345.527710 323.226196,346.890991 
	C322.910309,353.200287 323.085175,359.534210 323.084747,365.859283 
	C323.084351,371.794403 323.084656,377.729523 323.084656,383.518829 
	C332.854706,385.321808 333.135498,385.096924 333.127075,376.159332 
	C333.126282,375.327087 333.200562,374.486267 333.108673,373.664124 
	C332.759369,370.538879 333.861603,368.885864 337.256927,369.273956 
	C338.406891,369.405426 339.584900,369.301483 340.749939,369.290314 
	C353.201324,369.170929 358.850800,359.645935 352.687958,347.861176 
M371.168091,353.573029 
	C371.167908,351.408325 370.993042,349.226257 371.205627,347.082672 
	C371.593689,343.169586 369.376007,342.767456 366.288025,342.847076 
	C363.427704,342.920807 361.026062,342.759125 361.221497,346.902954 
	C361.503540,352.884186 361.292236,358.888672 361.291931,364.883240 
	C361.291595,371.152313 361.291840,377.421387 361.291840,383.550018 
	C371.098633,385.301544 371.176361,385.237152 371.167969,376.532684 
	C371.160889,369.205994 371.167419,361.879303 371.168091,353.573029 
z"/>
<path fill="#E0FCD4" opacity="1.000000" stroke="none" 
	d="
M231.819107,250.242401 
	C204.111053,191.685379 231.964417,124.157204 292.430786,102.560684 
	C335.116119,87.314941 382.836609,101.142586 412.152954,137.251740 
	C439.648743,171.118530 442.998199,220.921631 419.424011,258.622467 
	C397.955383,292.956055 366.439514,310.842010 325.873016,309.901215 
	C283.218353,308.911957 252.076813,288.087311 231.819107,250.242401 
M259.911957,219.409241 
	C259.587830,219.098999 259.263702,218.788757 258.565582,218.029007 
	C257.381805,218.095917 256.198059,218.162827 254.369598,217.922775 
	C252.510818,216.871002 250.652039,215.819229 247.774506,214.190994 
	C248.789337,220.394440 250.305588,224.289490 256.040161,225.690887 
	C256.730743,226.802536 257.421326,227.914185 258.322723,229.756485 
	C260.766876,230.494873 263.257996,231.118576 265.610260,232.081451 
	C266.015381,232.247269 265.830322,233.854889 265.271820,234.895203 
	C264.380310,235.495392 263.488831,236.095596 262.024841,236.831390 
	C261.350372,237.221848 260.675873,237.612305 259.346954,237.984070 
	C258.536713,238.308075 257.726471,238.632065 256.204315,238.636459 
	C251.295120,236.605911 247.882278,238.782516 244.126999,242.856903 
	C249.580017,244.540405 253.778687,244.693756 258.012939,240.265152 
	C263.781525,238.798965 260.742035,243.761078 261.984161,246.715561 
	C263.609711,243.038773 264.846802,240.240570 266.777313,237.269348 
	C268.853729,235.822174 270.930145,234.375000 273.575165,233.273804 
	C273.981628,233.450134 274.388123,233.626450 274.517792,234.640839 
	C274.078278,236.043396 273.638794,237.445953 272.732483,239.249268 
	C271.447540,242.094711 270.162567,244.940170 268.148041,247.859650 
	C262.078247,250.028748 259.654938,254.101135 260.094177,261.394165 
	C267.780792,259.496765 271.108887,254.983383 270.522491,247.741638 
	C271.862244,248.224548 273.202026,248.707458 274.699158,249.247086 
	C274.889801,246.132385 275.098969,242.715149 275.712372,238.788132 
	C276.741577,239.258789 277.770813,239.729446 278.773865,240.963242 
	C279.408112,243.022354 280.042328,245.081482 280.676575,247.140594 
	C281.250397,246.986420 281.824188,246.832245 282.398010,246.678070 
	C281.799225,243.983536 281.200409,241.289017 280.394836,237.872925 
	C275.798676,232.569382 280.151794,227.938217 281.213440,223.059769 
	C281.713379,222.845718 282.213287,222.631668 282.713226,222.417633 
	C284.831512,226.526505 286.949799,230.635376 288.524445,235.379654 
	C285.235138,240.830109 285.685272,245.546448 289.968750,250.512955 
	C295.017456,245.502945 295.348114,239.360870 290.853760,233.819748 
	C290.853760,232.062805 290.853760,230.305878 290.853760,227.714569 
	C293.157471,229.129410 294.921448,230.212753 296.790985,231.140045 
	C296.790985,231.140045 296.915771,231.237320 296.915771,231.237320 
	C296.915771,231.237320 296.590179,231.219635 296.902588,230.555923 
	C295.292328,228.762115 293.980377,226.488586 292.014679,225.266434 
	C286.590912,221.894165 284.495178,216.465668 283.055176,211.002975 
	C283.832886,210.888611 284.610596,210.774231 285.739868,210.463043 
	C285.739868,210.463043 286.139771,210.413742 286.124786,211.183167 
	C287.193024,211.809494 288.985840,213.175674 289.217987,212.948303 
	C291.692780,210.524506 293.920135,207.848129 296.798889,204.829849 
	C297.105865,203.974594 297.412872,203.119354 297.759735,201.549850 
	C299.342773,198.850128 297.392120,193.781326 303.082611,193.483841 
	C303.662933,195.623749 304.955750,197.720230 304.542542,199.396042 
	C303.528534,203.508530 302.276489,207.769699 300.063812,211.310989 
	C298.414185,213.951172 295.113434,215.559692 292.732971,217.641220 
	C292.732971,217.641220 292.689301,217.807114 292.689301,217.807114 
	C292.689301,217.807114 292.638245,217.520859 293.359344,217.945374 
	C295.901367,217.230255 298.443420,216.515137 301.075348,215.774734 
	C301.544678,218.449295 301.892700,220.432465 302.117493,221.713608 
	C303.284424,220.559204 304.553955,219.303299 305.674225,218.804398 
	C305.622742,225.474808 308.389862,229.387833 314.723358,231.600800 
	C316.304626,224.746872 314.029327,220.145859 307.246765,216.241394 
	C306.661407,213.206924 304.513214,210.031647 308.021118,207.069138 
	C308.925842,207.830643 309.668793,208.455963 310.414581,209.783508 
	C311.648834,215.582535 313.954285,217.785904 319.691986,218.317963 
	C319.074402,213.315460 317.495850,209.312897 311.721802,207.414307 
	C310.747803,204.155396 309.773834,200.896500 308.752533,197.479263 
	C311.536835,198.129089 313.378235,198.558868 316.000122,199.348373 
	C317.777771,200.370087 319.555389,201.391800 321.406525,202.455750 
	C322.996826,196.601639 321.881409,193.731308 316.901764,190.240067 
	C316.369843,189.800873 315.837952,189.361679 314.654633,188.579926 
	C314.433655,188.686493 314.212708,188.793060 313.997467,189.001877 
	C313.997467,189.001877 314.099487,188.992950 314.563995,188.378662 
	C313.322235,186.338074 312.080475,184.297501 310.897736,181.572479 
	C310.626312,180.721939 310.354858,179.871414 310.136688,178.292755 
	C310.514435,177.766327 310.805359,176.883255 311.282959,176.767029 
	C318.378632,175.039902 324.216187,171.477615 328.112762,164.707718 
	C331.515930,170.839264 336.175446,174.212173 342.232025,175.906723 
	C346.847046,177.197952 347.364655,179.614899 344.359161,183.473572 
	C342.791870,185.485779 341.569489,187.766663 340.271149,189.924561 
	C340.271149,189.924561 340.199371,189.899429 339.505585,190.088287 
	C334.757660,192.801041 333.238434,196.827301 334.513977,202.642731 
	C336.902618,201.185638 338.944855,199.939865 341.677032,198.907211 
	C343.258392,198.375336 344.839783,197.843460 347.606140,196.913010 
	C346.171844,201.331451 345.076111,204.706833 343.300385,208.214157 
	C338.450134,209.970703 336.815887,213.678452 336.627014,218.609421 
	C343.071686,217.223541 345.053589,215.051346 346.176788,208.562592 
	C348.805542,205.971420 349.715424,208.033417 349.719360,210.204681 
	C349.723663,212.562546 348.930328,214.921860 348.337616,217.289642 
	C348.337616,217.289642 348.238770,217.396347 347.589172,217.587585 
	C341.898834,220.485199 339.742004,225.560043 341.565918,231.759766 
	C348.336304,228.849930 350.750244,225.167603 351.305634,217.847168 
	C351.577972,217.722748 351.850311,217.598328 352.307373,218.127197 
	C352.392120,218.337036 352.476898,218.546860 352.294006,219.528290 
	C352.381836,221.248611 352.469635,222.968948 352.557465,224.689270 
	C353.038055,224.698532 353.518677,224.707779 353.999268,224.717041 
	C354.110962,222.719742 354.222656,220.722458 354.489990,217.935242 
	C355.807465,217.450821 357.121490,216.590012 358.443298,216.577942 
	C360.069183,216.563080 361.701569,217.256180 363.359497,217.807602 
	C363.359497,217.807602 363.109039,217.839615 363.109039,217.839615 
	C363.109039,217.839615 363.413635,217.796967 362.899139,217.347565 
	C359.697235,214.599503 356.495331,211.851425 353.424103,208.509735 
	C353.119568,207.779770 352.815033,207.049805 352.417755,205.591782 
	C352.207123,202.711792 351.996490,199.831787 352.158356,196.524048 
	C352.169464,195.978378 352.180603,195.432709 352.565369,194.348099 
	C353.702454,194.236038 354.839569,194.123962 356.213501,194.540680 
	C356.551849,195.006973 356.890198,195.473267 357.167084,196.681030 
	C358.014832,199.173706 358.862549,201.666382 359.720032,204.865814 
	C360.487183,205.695129 361.254303,206.524445 362.238770,207.965134 
	C363.615570,209.637009 364.992371,211.308868 367.162781,213.944412 
	C367.657104,211.398285 367.863983,210.332642 368.794922,209.611160 
	C369.540131,209.904572 370.285370,210.197998 371.533203,210.731094 
	C372.266296,210.841156 372.999359,210.951202 373.863708,211.763519 
	C370.047760,217.214996 366.231842,222.666458 362.526581,227.959824 
	C362.749207,228.006668 364.072144,228.285049 365.469940,228.579163 
	C365.339569,230.797501 365.223022,232.780487 364.505188,235.219025 
	C360.839966,240.443497 361.441162,245.908997 366.188110,250.518051 
	C370.846436,245.112686 371.052521,239.946793 367.131561,233.929947 
	C369.029419,230.499634 370.927246,227.069321 373.693146,223.563156 
	C374.255524,223.685944 374.817902,223.808716 375.450470,224.555145 
	C375.559845,224.958496 375.669220,225.361847 375.583008,226.329147 
	C375.875214,227.033752 376.167450,227.738342 376.641083,229.263153 
	C376.238861,232.374817 375.836670,235.486496 374.925140,239.136642 
	C374.558380,241.648285 374.191589,244.159927 373.824799,246.671555 
	C374.357056,246.760437 374.889282,246.849304 375.421539,246.938187 
	C376.010895,244.687424 376.600250,242.436676 377.540100,239.684814 
	C378.519379,239.256439 379.498657,238.828079 380.503784,238.970428 
	C380.672180,239.310989 380.840546,239.651535 381.024231,240.894897 
	C381.024231,243.844452 381.024231,246.794006 381.024231,248.565231 
	C383.523407,248.382858 384.771973,248.291748 385.892181,248.872986 
	C385.466461,255.573441 389.060638,259.928680 396.153687,261.307373 
	C396.508667,253.505142 393.620972,249.199783 386.898895,247.166840 
	C385.493011,244.344635 384.087128,241.522430 382.574677,238.206650 
	C382.368134,237.950089 382.161591,237.693512 382.003296,236.742142 
	C381.762421,235.847137 381.521545,234.952133 381.936157,233.843933 
	C382.370758,233.699265 382.805389,233.554596 383.783569,233.884048 
	C384.604279,234.368546 385.424957,234.853043 386.584503,235.838440 
	C388.328674,237.585739 390.072845,239.333038 392.038239,241.620514 
	C392.346985,241.412796 392.655731,241.205078 393.407867,240.416290 
	C394.623657,240.073959 395.839478,239.731644 398.144012,239.082764 
	C394.283417,236.956833 391.604950,235.481857 388.906464,233.354416 
	C389.010803,232.932632 389.115112,232.510849 389.939362,232.046265 
	C391.960297,231.340042 393.981262,230.633820 396.578827,230.053497 
	C396.951508,229.885162 397.324219,229.716827 397.696899,229.548477 
	C397.515961,229.346405 397.335022,229.144333 397.040039,228.366928 
	C397.056061,227.976227 397.072083,227.585541 397.663910,226.954987 
	C398.130066,226.299316 398.596222,225.643631 399.008636,225.017960 
	C399.008636,225.017960 399.056274,225.057007 399.829285,225.072678 
	C405.736298,223.866028 407.815552,221.270782 407.673828,214.442352 
	C405.256866,215.817062 403.168579,217.004822 400.460236,217.898178 
	C396.186188,217.153717 393.188202,218.539230 391.343597,223.156555 
	C390.565125,224.771271 389.786652,226.386002 388.520966,228.495834 
	C382.959076,232.132416 381.465973,227.236588 379.356995,223.216919 
	C378.720184,219.606598 380.508636,219.114288 383.846008,220.613342 
	C384.024078,220.110367 384.202148,219.607376 384.380188,219.104401 
	C383.031586,218.208939 381.682983,217.313477 379.853058,215.911316 
	C379.513733,211.880219 379.174377,207.849136 378.835052,203.818039 
	C379.512238,203.693253 380.189423,203.568481 380.866608,203.443695 
	C381.901154,205.324188 382.935730,207.204681 384.079285,209.788696 
	C385.434753,212.421112 386.790192,215.053543 388.145660,217.685974 
	C388.604523,217.506241 389.063354,217.326508 389.522217,217.146790 
	C389.522217,215.309464 389.522217,213.472137 389.522217,210.776077 
	C392.077393,211.902924 394.076965,212.570724 395.856323,213.614044 
	C399.559509,215.785385 401.150970,214.923203 400.761658,209.829941 
	C400.845917,204.732407 399.517365,200.484314 394.015778,198.039261 
	C393.008270,197.028198 392.000763,196.017136 390.404205,194.757538 
	C389.267365,193.507431 388.130493,192.257309 386.854126,190.332153 
	C385.599548,189.538574 384.345001,188.744980 383.028534,187.982010 
	C383.028534,187.982010 383.043762,187.914673 383.182465,187.318314 
	C383.479340,186.561600 383.776245,185.804901 384.944855,185.005356 
	C389.032898,185.717529 392.781433,185.324341 395.843384,181.790192 
	C393.749573,180.431274 391.878906,179.217178 390.600616,177.918747 
	C390.483398,177.061005 390.683380,175.762100 390.199585,175.414230 
	C385.711090,172.186874 380.967224,170.443649 375.016693,173.520035 
	C373.827118,172.268021 372.637543,171.016006 371.019684,169.313217 
	C365.371582,174.373749 359.934845,170.162781 354.233368,166.966431 
	C356.157684,162.851303 359.105804,162.480637 363.193665,164.906464 
	C365.472534,165.190247 367.751434,165.474045 370.030304,165.757828 
	C370.120667,165.316956 370.211060,164.876099 370.301422,164.435226 
	C369.267700,163.952774 368.233978,163.470306 366.827393,162.813843 
	C367.800507,161.916473 368.493896,161.277054 369.980225,160.855682 
	C376.040039,161.171127 378.938568,159.143951 380.485260,152.480026 
	C376.565948,153.809753 373.262695,154.930466 369.452454,155.415543 
	C370.469940,153.231522 371.487396,151.047485 373.072021,147.646118 
	C369.994415,148.427063 367.732361,148.470062 366.146667,149.527405 
	C363.744934,151.128876 361.813751,153.436066 359.078583,154.491898 
	C358.787842,154.253952 358.497131,154.016022 358.304901,153.190186 
	C358.146881,152.255814 357.988831,151.321442 357.830780,150.387070 
	C357.416260,150.484268 357.001740,150.581451 356.587219,150.678650 
	C356.877319,151.691574 357.167450,152.704514 357.012878,154.354538 
	C355.901154,156.593719 354.789459,158.832886 353.496582,161.436905 
	C352.171478,160.521805 351.158813,159.822464 350.200287,158.266418 
	C350.796753,155.565491 351.393250,152.864578 352.659515,149.901367 
	C357.109131,145.183060 357.087311,139.604172 352.597870,134.121674 
	C347.408234,138.809265 346.844086,144.542908 350.547729,150.827911 
	C349.750671,152.143356 348.953613,153.458801 347.856537,155.269348 
	C346.075653,153.071228 344.800903,151.497787 343.526154,149.924362 
	C343.146820,150.096054 342.767487,150.267761 342.388153,150.439453 
	C343.415070,152.820007 344.441986,155.200546 345.708771,158.218826 
	C347.066620,159.779694 348.424438,161.340561 349.292297,163.695908 
	C347.824005,164.049454 346.355682,164.402985 344.234253,164.387665 
	C341.785706,161.843674 338.138733,159.694366 337.143372,156.671829 
	C335.197296,150.762222 334.551086,144.388885 333.728058,138.159790 
	C333.303253,134.944565 333.653442,131.626953 333.653442,128.153046 
	C329.610992,128.153046 326.352814,128.153046 322.384613,128.153046 
	C322.384613,130.393066 322.561920,132.356827 322.352356,134.278412 
	C321.633301,140.871567 321.118073,147.515457 319.864380,154.012497 
	C318.923615,158.887848 316.214630,162.942383 310.254944,164.606918 
	C309.113434,164.613312 307.971893,164.619705 306.476562,163.867462 
	C307.939575,161.255127 309.402557,158.642776 311.099213,155.355865 
	C310.398346,155.233215 309.697449,155.110580 308.377167,155.006348 
	C307.965057,154.978333 307.552948,154.950333 306.904114,154.297638 
	C306.119171,153.927353 305.334229,153.557083 304.549286,153.186798 
	C304.663116,153.796600 304.776917,154.406387 304.995514,155.733566 
	C306.433655,158.558563 305.652374,160.314697 301.996155,161.206146 
	C300.990417,159.005310 300.148102,156.738983 298.908966,154.715622 
	C298.550507,154.130310 297.053101,154.242462 295.534912,153.997040 
	C295.173370,153.972122 294.811829,153.947205 294.074951,153.316452 
	C291.761932,149.505447 288.432434,147.882339 283.229248,148.392731 
	C284.391357,150.543091 285.280548,152.188446 285.683136,154.371719 
	C285.320618,154.692047 284.958130,155.012390 283.877106,155.207428 
	C281.303558,154.445221 278.730042,153.682999 275.708282,152.788055 
	C277.139069,159.503922 280.737640,162.086914 287.443909,161.846420 
	C286.632141,162.769287 285.820374,163.692154 285.008575,164.615021 
	C285.044220,165.040405 285.079834,165.465775 285.115448,165.891144 
	C287.835419,165.371262 290.555389,164.851379 293.966827,164.056015 
	C297.215607,162.493851 299.646149,163.087067 300.996643,166.642838 
	C294.443146,172.264236 291.620850,172.602341 284.877441,168.873154 
	C283.998016,168.386795 282.760284,168.548279 281.748383,168.245346 
	C281.748383,168.245346 281.676300,168.301041 282.203430,168.801361 
	C282.885132,169.795883 283.566833,170.790405 284.462158,172.096603 
	C282.949127,172.736298 281.835449,173.207153 280.038696,173.306900 
	C278.475586,172.876785 276.935181,172.217133 275.345093,172.060043 
	C270.779785,171.608978 266.042236,174.532654 265.179688,178.653076 
	C263.580231,179.626297 261.980743,180.599518 260.096741,181.745880 
	C263.590546,185.569351 267.641296,185.809464 272.379456,185.510880 
	C272.901215,185.682800 273.423004,185.854721 273.986572,185.992432 
	C273.986572,185.992432 273.975037,186.045151 273.972229,186.505066 
	C273.972229,186.505066 273.985626,186.964798 273.694946,187.575119 
	C271.028931,189.897415 268.362885,192.219711 265.100922,194.812592 
	C264.056244,196.217010 263.011566,197.621429 261.288300,199.169266 
	C259.349670,201.765274 257.411041,204.361298 255.066223,207.161743 
	C255.098267,207.782761 255.130295,208.403793 255.232620,209.400940 
	C255.232620,209.400940 255.165085,209.777542 255.176636,210.499924 
	C255.645172,211.838882 256.113708,213.177856 257.026489,215.786423 
	C259.142670,213.361877 260.554016,211.744858 262.775970,210.080948 
	C263.852417,210.056946 264.928833,210.032959 266.293854,210.669098 
	C266.443848,212.849380 266.593872,215.029648 266.743896,217.209930 
	C267.188538,217.379913 267.633209,217.549911 268.077881,217.719910 
	C269.065796,215.173706 270.053711,212.627502 271.005981,210.026443 
	C271.005981,210.026443 271.070984,210.033890 271.728241,209.799835 
	C272.292389,208.380157 272.856506,206.960480 273.436554,205.418503 
	C273.436554,205.418503 273.559265,205.406357 274.248077,205.723557 
	C274.742004,205.825974 275.235931,205.928406 275.894318,206.644623 
	C275.943695,207.065308 275.993073,207.485977 276.176239,208.313263 
	C276.308105,208.569885 276.479126,208.796982 276.694183,209.829254 
	C276.703369,211.219879 276.712555,212.610519 276.430054,214.307587 
	C276.241608,214.523560 276.105103,214.768478 275.912750,215.417419 
	C275.912750,215.417419 275.887909,215.806870 275.363403,216.171082 
	C274.247406,217.518906 273.131409,218.866730 271.754425,220.529739 
	C273.561707,220.301361 274.874756,220.135437 276.339294,219.950378 
	C276.516113,221.566330 276.655304,222.838287 276.439240,224.765427 
	C271.913910,231.365295 269.377228,231.645767 266.191681,225.176453 
	C264.801331,223.760605 263.411011,222.344742 262.013245,220.994263 
	C262.013245,220.994263 262.078705,220.987732 261.749237,220.404129 
	C261.148315,220.250809 260.547424,220.097488 259.938293,220.055496 
	C259.938293,220.055496 260.049377,220.066574 259.911957,219.409241 
M300.252106,141.714539 
	C299.947540,145.258698 300.751953,148.264938 304.154846,150.033737 
	C309.570648,146.141022 309.049866,138.176224 302.669342,133.843994 
	C301.866333,136.313614 301.118683,138.613007 300.252106,141.714539 
M407.954224,239.154999 
	C404.796997,238.841064 401.639771,238.527145 398.482544,238.213226 
	C402.644135,244.398056 405.484344,245.088303 411.913300,242.497513 
	C410.655975,241.393448 409.620483,240.484161 407.954224,239.154999 
z"/>
<path fill="#D7F5CF" opacity="1.000000" stroke="none" 
	d="
M237.368866,346.600952 
	C243.632370,354.891998 242.498993,361.541290 233.481339,368.997437 
	C235.825409,373.664581 238.232666,378.457550 240.677078,383.324493 
	C232.215866,385.546265 231.043442,385.088013 227.563339,378.490692 
	C226.322815,376.139008 225.242325,373.681519 223.776810,371.480011 
	C223.161041,370.554993 221.736252,370.168549 220.679230,369.537262 
	C220.141052,370.598572 219.233536,371.627899 219.138260,372.727570 
	C218.909607,375.367157 218.952271,378.045380 219.086777,380.697784 
	C219.289230,384.690552 216.538010,384.244568 214.039047,384.221680 
	C211.596909,384.199310 208.870773,384.824738 208.905563,380.785828 
	C209.004303,369.318390 208.884354,357.848877 209.029175,346.382385 
	C209.043549,345.246063 210.327805,343.122772 210.950531,343.149292 
	C218.848587,343.485962 226.737320,344.087372 234.616089,344.764893 
	C235.485779,344.839691 236.279190,345.801819 237.368866,346.600952 
M218.927673,355.656769 
	C219.693878,357.213196 220.508774,360.118744 221.217896,360.093170 
	C224.338135,359.980530 227.482513,359.186035 230.469269,358.191528 
	C230.913437,358.043640 231.055756,355.264465 230.487625,354.127289 
	C228.843521,350.836548 220.869003,351.372284 218.927673,355.656769 
z"/>
<path fill="#D8F5D0" opacity="1.000000" stroke="none" 
	d="
M379.542725,353.085480 
	C379.542328,342.922882 379.542358,342.907623 389.401154,342.931396 
	C392.724426,342.939423 396.058929,342.893250 399.368011,343.141937 
	C405.210480,343.580963 409.434357,346.333160 411.191772,352.183533 
	C412.919403,357.934814 411.141205,363.171051 406.148590,367.190155 
	C405.519928,367.696259 404.906158,368.220856 403.937958,369.025818 
	C406.385498,373.768982 408.795044,378.438599 411.230591,383.158539 
	C403.545532,385.667358 401.541107,384.922272 398.166809,378.584961 
	C396.994507,376.383209 395.994690,374.065430 394.598846,372.016754 
	C393.862000,370.935272 392.442719,370.318756 391.331543,369.492340 
	C390.753296,370.691498 389.789124,371.854156 389.671600,373.096893 
	C389.360168,376.390350 389.417542,379.718506 389.314392,383.032410 
	C389.309875,383.177368 389.168854,383.318054 388.940308,383.739105 
	C388.187683,383.874420 387.244507,384.159424 386.291595,384.196716 
	C379.540405,384.461121 379.541412,384.444946 379.542816,377.518433 
	C379.544434,369.535492 379.542816,361.552582 379.542725,353.085480 
M389.438385,355.597504 
	C389.347046,358.175171 389.158661,360.828918 393.054291,360.403015 
	C396.143494,360.065247 400.214386,361.688629 401.371216,357.231995 
	C401.710510,355.924988 400.040497,352.776855 399.100342,352.696075 
	C395.824341,352.414612 391.643646,349.675018 389.438385,355.597504 
z"/>
<path fill="#D7F5CF" opacity="1.000000" stroke="none" 
	d="
M277.903687,344.917938 
	C277.998810,352.220459 277.998810,352.222076 270.931549,352.225098 
	C267.938873,352.226349 264.900787,351.912445 261.972595,352.345459 
	C260.504333,352.562592 258.341034,353.919464 258.051117,355.133270 
	C257.284637,358.342560 259.919678,358.288849 262.166626,358.276794 
	C265.963135,358.256470 269.759857,358.271179 273.937378,358.271179 
	C273.937378,361.298645 273.937378,363.867065 273.937378,367.302002 
	C269.840485,367.302002 265.750488,367.448975 261.676697,367.254944 
	C258.487579,367.103058 257.744598,368.554901 257.762604,371.434540 
	C257.780060,374.225494 258.774109,375.347046 261.567810,375.219879 
	C264.720276,375.076385 267.884216,375.181396 271.043152,375.182739 
	C278.725800,375.185974 278.948181,375.481323 277.253693,384.176239 
	C268.295380,384.176239 259.201538,384.255249 250.114731,384.039154 
	C249.313187,384.020142 247.896713,382.081757 247.881958,381.019318 
	C247.720413,369.383362 247.719589,357.743439 247.884918,346.107605 
	C247.899918,345.051208 249.355240,343.121857 250.168365,343.107513 
	C258.967377,342.952118 267.772034,343.079773 276.573669,343.222015 
	C277.008545,343.229034 277.429688,344.083374 277.903687,344.917938 
z"/>
<path fill="#D5F3CE" opacity="1.000000" stroke="none" 
	d="
M446.757141,343.153809 
	C450.101562,350.087494 448.897552,352.221527 442.072052,352.234009 
	C438.905792,352.239777 435.729797,352.395325 432.575684,352.200317 
	C428.227875,351.931488 427.382172,353.919525 428.702484,358.163147 
	C433.778229,358.163147 438.874512,358.163147 443.782806,358.163147 
	C446.259583,366.290253 445.579224,367.306580 438.206848,367.314178 
	C435.082550,367.317383 431.958221,367.314697 428.455200,367.314697 
	C428.455200,370.120667 428.455200,372.326843 428.455200,375.068085 
	C434.908203,375.068085 441.182587,375.068085 447.295258,375.068085 
	C449.688721,383.282135 448.990814,384.234741 441.114075,384.236359 
	C433.659088,384.237915 426.204071,384.236694 418.220917,384.236694 
	C418.220917,370.967407 418.130066,358.338470 418.401215,345.717316 
	C418.421936,344.754272 420.983246,343.079651 422.400543,343.039551 
	C430.390228,342.813507 438.391235,342.986389 446.757141,343.153809 
z"/>
<path fill="#D5F3CE" opacity="1.000000" stroke="none" 
	d="
M295.219666,384.614990 
	C290.812469,382.454987 286.787140,380.414764 282.234650,378.107300 
	C284.741058,374.790649 286.407959,372.584869 288.272736,370.117279 
	C290.512238,371.506287 292.319183,373.040344 294.407715,373.819794 
	C297.138123,374.838715 300.067688,375.547363 302.961243,375.785309 
	C303.984467,375.869446 305.557526,374.364197 306.084595,373.218750 
	C306.344971,372.652832 305.021545,370.851807 304.031036,370.305939 
	C300.100800,368.140015 295.933990,366.402008 292.012726,364.221466 
	C285.445587,360.569550 282.952667,356.156403 284.294861,351.176575 
	C285.694000,345.985535 291.091797,342.475830 297.936218,342.306824 
	C306.108795,342.105011 310.401306,344.137878 314.494659,350.148682 
	C309.968262,356.321503 309.732269,356.370636 303.449249,352.891479 
	C302.582153,352.411316 301.577148,351.694489 300.714264,351.790497 
	C298.741882,352.010101 296.817932,352.665253 294.874329,353.143463 
	C296.016632,354.536621 296.893158,356.397583 298.355103,357.228149 
	C301.668396,359.110626 305.368073,360.302734 308.733429,362.106232 
	C315.022675,365.476593 317.602112,369.712311 316.738831,374.620087 
	C315.846527,379.692688 310.374329,384.369293 304.043427,385.023468 
	C301.269043,385.310150 298.417877,384.853729 295.219666,384.614990 
z"/>
<path fill="#D7F5CF" opacity="1.000000" stroke="none" 
	d="
M352.898132,348.159241 
	C358.850800,359.645935 353.201324,369.170929 340.749939,369.290314 
	C339.584900,369.301483 338.406891,369.405426 337.256927,369.273956 
	C333.861603,368.885864 332.759369,370.538879 333.108673,373.664124 
	C333.200562,374.486267 333.126282,375.327087 333.127075,376.159332 
	C333.135498,385.096924 332.854706,385.321808 323.084656,383.518829 
	C323.084656,377.729523 323.084351,371.794403 323.084747,365.859283 
	C323.085175,359.534210 322.910309,353.200287 323.226196,346.890991 
	C323.294464,345.527710 325.075439,343.172607 326.160767,343.117676 
	C331.961761,342.824188 337.862640,342.608917 343.584991,343.403625 
	C346.764343,343.845184 349.662872,346.308868 352.898132,348.159241 
M335.704010,360.316223 
	C337.689697,360.275024 339.716248,360.471069 341.651581,360.137634 
	C344.644867,359.621887 346.259796,357.435944 344.772644,354.786438 
	C343.976044,353.367218 341.360840,352.441193 339.488342,352.295715 
	C337.448822,352.137268 333.958466,352.633881 333.541534,353.753754 
	C332.885803,355.514984 334.273224,358.036926 335.704010,360.316223 
z"/>
<path fill="#D3F2CC" opacity="1.000000" stroke="none" 
	d="
M371.168030,354.062805 
	C371.167419,361.879303 371.160889,369.205994 371.167969,376.532684 
	C371.176361,385.237152 371.098633,385.301544 361.291840,383.550018 
	C361.291840,377.421387 361.291595,371.152313 361.291931,364.883240 
	C361.292236,358.888672 361.503540,352.884186 361.221497,346.902954 
	C361.026062,342.759125 363.427704,342.920807 366.288025,342.847076 
	C369.376007,342.767456 371.593689,343.169586 371.205627,347.082672 
	C370.993042,349.226257 371.167908,351.408325 371.168030,354.062805 
z"/>
<path fill="#1C6350" opacity="1.000000" stroke="none" 
	d="
M310.838715,182.256927 
	C312.080475,184.297501 313.322235,186.338074 313.987488,188.745056 
	C312.133240,188.156754 310.855499,187.202072 309.323273,186.057266 
	C308.921356,187.053665 308.611816,187.621033 308.460266,188.227859 
	C307.062378,193.824646 312.700348,194.526840 314.862061,197.702179 
	C314.900665,198.220428 315.060150,198.604523 315.219635,198.988632 
	C313.378235,198.558868 311.536835,198.129089 308.752533,197.479263 
	C309.773834,200.896500 310.747803,204.155396 311.659088,207.868790 
	C311.201477,208.575943 310.806610,208.828629 310.411713,209.081299 
	C309.668793,208.455963 308.925842,207.830643 308.021118,207.069138 
	C304.513214,210.031647 306.661407,213.206924 307.155914,216.740952 
	C306.651184,217.509476 306.237305,217.778427 305.823456,218.047394 
	C304.553955,219.303299 303.284424,220.559204 302.117493,221.713608 
	C301.892700,220.432465 301.544678,218.449295 301.075348,215.774734 
	C298.443420,216.515137 295.901367,217.230255 293.008911,217.787415 
	C292.658447,217.629456 292.548004,217.627670 292.548004,217.627655 
	C295.113434,215.559692 298.414185,213.951172 300.063812,211.310989 
	C302.276489,207.769699 303.528534,203.508530 304.542542,199.396042 
	C304.955750,197.720230 303.662933,195.623749 303.082611,193.483841 
	C297.392120,193.781326 299.342773,198.850128 297.580170,201.865173 
	C297.400604,202.180511 297.077942,202.251114 296.969299,201.965851 
	C295.575104,200.120667 294.289551,198.560745 293.077698,196.665771 
	C295.340210,194.110489 297.251923,191.483795 299.779510,189.760406 
	C304.123108,186.798828 303.881805,182.867767 303.529694,177.724228 
	C294.560852,182.071274 285.396729,184.968018 285.730194,198.252045 
	C284.466431,195.693573 283.882385,194.511139 283.298309,193.328720 
	C282.792175,193.376602 282.286011,193.424469 281.779877,193.472351 
	C280.108032,199.254181 282.323334,205.185104 282.268524,211.028961 
	C284.495178,216.465668 286.590912,221.894165 292.014679,225.266434 
	C293.980377,226.488586 295.292328,228.762115 296.793274,230.878143 
	C296.683960,231.200363 296.685394,231.296082 296.685394,231.296082 
	C294.921448,230.212753 293.157471,229.129410 290.853760,227.714569 
	C290.853760,230.305878 290.853760,232.062805 290.620819,234.212936 
	C289.947968,234.652161 289.508026,234.698196 289.068115,234.744263 
	C286.949799,230.635376 284.831512,226.526505 282.713226,222.417633 
	C282.213287,222.631668 281.713379,222.845718 281.213440,223.059769 
	C280.151794,227.938217 275.798676,232.569382 280.224579,238.533203 
	C279.636230,239.529037 279.218109,239.864578 278.800018,240.200119 
	C277.770813,239.729446 276.741577,239.258789 274.979980,238.944992 
	C273.898193,239.017410 273.548737,238.932968 273.199310,238.848511 
	C273.638794,237.445953 274.078278,236.043396 274.792358,233.991669 
	C274.380127,233.204285 273.693329,233.066071 273.006561,232.927826 
	C270.930145,234.375000 268.853729,235.822174 266.378174,236.916748 
	C265.958649,235.974930 265.938263,235.385712 265.917877,234.796494 
	C265.830322,233.854889 266.015381,232.247269 265.610260,232.081451 
	C263.257996,231.118576 260.766876,230.494873 258.449432,229.289093 
	C258.721710,227.847977 258.867279,226.874252 259.348969,226.065674 
	C261.201660,226.171494 262.718201,226.112183 264.574799,226.044785 
	C265.365723,225.987823 265.816620,225.938965 266.267487,225.890091 
	C269.377228,231.645767 271.913910,231.365295 276.849762,224.210022 
	C276.802826,221.038696 276.345367,218.422775 275.887909,215.806870 
	C275.887909,215.806870 275.912750,215.417419 276.228821,215.172119 
	C276.603851,214.618256 276.662811,214.309708 276.721741,214.001144 
	C276.712555,212.610519 276.703369,211.219879 276.794342,209.162003 
	C276.610504,208.298721 276.326477,208.102692 276.042450,207.906647 
	C275.993073,207.485977 275.943695,207.065308 275.884644,206.061829 
	C275.698853,204.943054 275.522736,204.407074 275.346619,203.871078 
	C274.750824,204.382843 274.155060,204.894592 273.559265,205.406357 
	C273.559265,205.406357 273.436554,205.418503 273.169067,205.678635 
	C272.291412,207.303802 271.681183,208.668854 271.070984,210.033890 
	C271.070984,210.033890 271.005981,210.026443 270.669556,210.082886 
	C268.890503,210.095886 267.447906,210.052429 266.005280,210.008957 
	C264.928833,210.032959 263.852417,210.056946 262.433319,209.740265 
	C270.899750,206.892395 273.333740,199.491241 275.088287,191.227707 
	C272.497772,192.897278 269.907227,194.566864 267.015747,195.985107 
	C266.375458,195.336487 266.036163,194.939240 265.696838,194.541992 
	C268.362885,192.219711 271.028931,189.897415 274.084961,187.223755 
	C274.308350,186.596634 274.141693,186.320892 273.975037,186.045151 
	C273.975037,186.045151 273.986572,185.992432 274.100830,185.635895 
	C280.186066,185.184341 283.971344,181.951584 287.002167,176.429321 
	C284.543793,176.274628 282.646484,176.155243 280.727356,175.738464 
	C280.710938,174.853394 280.716339,174.265701 280.721771,173.678009 
	C281.835449,173.207153 282.949127,172.736298 284.462158,172.096603 
	C283.566833,170.790405 282.885132,169.795883 281.983093,168.573853 
	C281.762756,168.346344 281.688507,168.409698 281.688507,168.409698 
	C282.760284,168.548279 283.998016,168.386795 284.877441,168.873154 
	C291.620850,172.602341 294.443146,172.264236 300.996643,166.642838 
	C299.646149,163.087067 297.215607,162.493851 293.365875,163.948181 
	C292.542603,162.958405 292.320312,162.076462 292.499207,161.182770 
	C294.320099,160.902206 295.739838,160.633392 296.077850,160.569397 
	C296.077850,157.660355 296.077850,155.847610 296.077850,154.034882 
	C297.053101,154.242462 298.550507,154.130310 298.908966,154.715622 
	C300.148102,156.738983 300.990417,159.005310 301.996155,161.206146 
	C305.652374,160.314697 306.433655,158.558563 305.318909,155.394241 
	C306.141785,155.010712 306.641327,154.966522 307.140839,154.922318 
	C307.552948,154.950333 307.965057,154.978333 308.875061,155.194870 
	C309.870483,155.599075 310.368042,155.814758 310.865540,156.030426 
	C309.402557,158.642776 307.939575,161.255127 306.812256,164.483002 
	C308.467102,164.970795 309.786224,164.843048 311.105377,164.715302 
	C316.214630,162.942383 318.923615,158.887848 319.864380,154.012497 
	C321.118073,147.515457 321.633301,140.871567 322.352356,134.278412 
	C322.561920,132.356827 322.384613,130.393066 322.384613,128.153046 
	C326.352814,128.153046 329.610992,128.153046 333.653442,128.153046 
	C333.653442,131.626953 333.303253,134.944565 333.728058,138.159790 
	C334.551086,144.388885 335.197296,150.762222 337.143372,156.671829 
	C338.138733,159.694366 341.785706,161.843674 344.744598,164.800842 
	C349.217163,165.921448 350.053955,165.494003 349.782288,162.901428 
	C348.424438,161.340561 347.066620,159.779694 345.832733,157.655914 
	C347.353180,157.769684 348.749634,158.446396 350.146118,159.123108 
	C351.158813,159.822464 352.171478,160.521805 353.496582,161.436905 
	C354.789459,158.832886 355.901154,156.593719 357.347107,154.131836 
	C357.681366,153.909119 357.968445,153.941452 357.968445,153.941452 
	C357.968445,153.941452 358.206390,153.778076 358.206390,153.778076 
	C358.497131,154.016022 358.787842,154.253952 359.385742,155.165619 
	C359.848724,156.374084 360.004486,156.908829 359.912659,157.733795 
	C359.217560,158.741730 358.770081,159.459427 358.069275,160.583435 
	C360.448120,160.803207 362.221466,160.967041 363.969208,161.490616 
	C363.545532,162.678284 363.147491,163.506195 362.749451,164.334106 
	C359.105804,162.480637 356.157684,162.851303 354.233368,166.966431 
	C359.934845,170.162781 365.371582,174.373749 371.019684,169.313217 
	C372.637543,171.016006 373.827118,172.268021 375.349213,173.950668 
	C375.691589,174.930679 375.701447,175.480042 375.318207,176.053680 
	C373.075836,176.173386 371.226532,176.268845 369.377258,176.364304 
	C371.521423,180.019241 373.906708,182.659027 376.679535,184.795929 
	C378.513153,186.208984 380.902954,186.900253 383.043762,187.914673 
	C383.043762,187.914673 383.028534,187.982010 383.150055,188.279022 
	C384.512268,189.386414 385.752960,190.196808 386.993652,191.007202 
	C388.130493,192.257309 389.267365,193.507431 390.724579,195.255829 
	C390.260803,195.902939 389.278046,196.428864 388.725494,196.137894 
	C385.698792,194.544128 382.777649,192.749954 379.820221,191.024628 
	C379.514862,191.369766 379.209503,191.714905 378.904114,192.060043 
	C381.960907,197.603226 385.017670,203.146408 388.292572,209.085159 
	C387.350616,209.085159 385.660461,209.085159 383.970306,209.085159 
	C382.935730,207.204681 381.901154,205.324188 380.866608,203.443695 
	C380.189423,203.568481 379.512238,203.693253 378.835052,203.818039 
	C379.174377,207.849136 379.513733,211.880219 379.859375,216.477051 
	C379.632233,219.373322 379.398712,221.703888 379.165222,224.034439 
	C381.465973,227.236588 382.959076,232.132416 389.038605,228.252579 
	C390.269012,227.887238 390.981781,227.765152 392.100952,227.538330 
	C393.975403,226.683594 395.443390,225.933609 396.947754,225.687103 
	C397.018768,226.525345 397.053436,226.860092 397.088104,227.194839 
	C397.072083,227.585541 397.056061,227.976227 396.883728,228.792542 
	C396.485657,229.454620 396.243927,229.691116 396.002197,229.927612 
	C393.981262,230.633820 391.960297,231.340042 389.268982,232.110504 
	C388.085785,232.766220 387.572937,233.357697 386.849487,234.292145 
	C386.507751,234.869263 386.376709,235.103394 386.245667,235.337540 
	C385.424957,234.853043 384.604279,234.368546 383.428894,233.383972 
	C382.285858,232.599396 381.497528,232.314911 380.709167,232.030441 
	C380.899658,232.706009 381.090149,233.381577 381.280670,234.057129 
	C381.521545,234.952133 381.762421,235.847137 381.606171,237.324921 
	C380.965363,238.071701 380.721649,238.235703 380.477936,238.399719 
	C379.498657,238.828079 378.519379,239.256439 377.031189,239.720245 
	C376.159698,239.369827 375.797089,238.983994 375.434479,238.598160 
	C375.836670,235.486496 376.238861,232.374817 376.656128,228.571838 
	C376.373688,227.175415 376.076141,226.470291 375.778625,225.765182 
	C375.669220,225.361847 375.559845,224.958496 375.541748,224.007080 
	C374.697052,223.519028 373.761047,223.579010 372.825073,223.638992 
	C370.927246,227.069321 369.029419,230.499634 366.762512,234.231964 
	C365.964447,234.610474 365.535461,234.686981 365.106476,234.763489 
	C365.223022,232.780487 365.339569,230.797501 365.469940,228.579163 
	C364.072144,228.285049 362.749207,228.006668 362.526581,227.959824 
	C366.231842,222.666458 370.047760,217.214996 373.944397,210.988358 
	C373.110229,204.636459 377.332001,198.625717 373.060150,192.799103 
	C371.686768,194.611252 370.756134,195.839233 369.877930,196.652542 
	C369.424561,187.136230 362.418457,180.060974 352.533020,178.706100 
	C350.939789,185.118896 354.678345,189.205414 358.553375,193.388977 
	C358.143280,193.825760 357.979156,194.000381 357.512604,194.112152 
	C356.799011,194.036835 356.387848,194.024368 355.976654,194.011902 
	C354.839569,194.123962 353.702454,194.236038 352.189941,194.720184 
	C351.804993,195.712112 351.795441,196.331955 351.785858,196.951797 
	C351.996490,199.831787 352.207123,202.711792 352.368652,206.259933 
	C352.644196,207.653183 352.968811,208.378265 353.293427,209.103363 
	C356.495331,211.851425 359.697235,214.599503 363.104858,217.550415 
	C363.310608,217.753265 363.331146,217.643280 363.331146,217.643280 
	C361.701569,217.256180 360.069183,216.563080 358.443298,216.577942 
	C357.121490,216.590012 355.807465,217.450821 354.190308,218.296082 
	C353.447662,218.690186 353.004639,218.723434 352.561646,218.756683 
	C352.476898,218.546860 352.392120,218.337036 351.921387,217.552673 
	C350.518524,217.078949 349.501678,217.179749 348.484833,217.280548 
	C348.930328,214.921860 349.723663,212.562546 349.719360,210.204681 
	C349.715424,208.033417 348.805542,205.971420 345.725891,208.673035 
	C344.843445,208.549744 344.411926,208.315979 343.980408,208.082214 
	C345.076111,204.706833 346.171844,201.331451 347.606140,196.913010 
	C344.839783,197.843460 343.258392,198.375336 341.389221,198.568878 
	C341.116425,197.908035 341.072845,197.593613 341.201904,197.108429 
	C341.640320,196.608505 341.847473,196.287460 342.023987,195.980896 
	C341.993378,195.995392 342.026794,196.054337 342.354675,195.936554 
	C346.414856,193.715729 349.519531,191.363358 346.715149,186.463440 
	C344.345642,187.721130 342.268463,188.823654 340.191345,189.926178 
	C341.569489,187.766663 342.791870,185.485779 344.359161,183.473572 
	C347.364655,179.614899 346.847046,177.197952 342.232025,175.906723 
	C336.175446,174.212173 331.515930,170.839264 328.112762,164.707718 
	C324.216187,171.477615 318.378632,175.039902 311.282959,176.767029 
	C310.805359,176.883255 310.514435,177.766327 309.931702,178.872162 
	C310.097382,180.386688 310.468048,181.321808 310.838715,182.256927 
z"/>
<path fill="#CFEFC7" opacity="1.000000" stroke="none" 
	d="
M282.661865,211.015961 
	C282.323334,205.185104 280.108032,199.254181 281.779877,193.472351 
	C282.286011,193.424469 282.792175,193.376602 283.298309,193.328720 
	C283.882385,194.511139 284.466431,195.693573 285.730194,198.252045 
	C285.396729,184.968018 294.560852,182.071274 303.529694,177.724228 
	C303.881805,182.867767 304.123108,186.798828 299.779510,189.760406 
	C297.251923,191.483795 295.340210,194.110489 292.792023,196.765320 
	C292.160797,197.497818 291.888916,197.795731 291.358337,198.275604 
	C286.573608,201.297653 283.752045,204.935516 285.388306,210.659866 
	C284.610596,210.774231 283.832886,210.888611 282.661865,211.015961 
z"/>
<path fill="#CDEEC2" opacity="1.000000" stroke="none" 
	d="
M384.024780,209.436920 
	C385.660461,209.085159 387.350616,209.085159 388.292572,209.085159 
	C385.017670,203.146408 381.960907,197.603226 378.904114,192.060043 
	C379.209503,191.714905 379.514862,191.369766 379.820221,191.024628 
	C382.777649,192.749954 385.698792,194.544128 388.725494,196.137894 
	C389.278046,196.428864 390.260803,195.902939 391.019104,195.380096 
	C392.000763,196.017136 393.008270,197.028198 393.744690,198.560974 
	C392.072235,204.648514 394.248871,208.115448 400.703979,210.599228 
	C401.150970,214.923203 399.559509,215.785385 395.856323,213.614044 
	C394.076965,212.570724 392.077393,211.902924 389.522217,210.776077 
	C389.522217,213.472137 389.522217,215.309464 389.522217,217.146790 
	C389.063354,217.326508 388.604523,217.506241 388.145660,217.685974 
	C386.790192,215.053543 385.434753,212.421112 384.024780,209.436920 
z"/>
<path fill="#CDEEC2" opacity="1.000000" stroke="none" 
	d="
M267.316711,196.236465 
	C269.907227,194.566864 272.497772,192.897278 275.088287,191.227707 
	C273.333740,199.491241 270.899750,206.892395 262.028015,209.763718 
	C260.554016,211.744858 259.142670,213.361877 257.026489,215.786423 
	C256.113708,213.177856 255.645172,211.838882 255.521271,210.207779 
	C261.064606,208.690277 263.217834,205.199554 263.446960,199.912674 
	C264.913666,198.575470 266.115204,197.405975 267.316711,196.236465 
z"/>
<path fill="#8AD13D" opacity="1.000000" stroke="none" 
	d="
M387.110077,247.823929 
	C393.620972,249.199783 396.508667,253.505142 396.153687,261.307373 
	C389.060638,259.928680 385.466461,255.573441 386.229309,248.444199 
	C386.747681,247.951569 386.928894,247.887741 387.110077,247.823929 
z"/>
<path fill="#8CD241" opacity="1.000000" stroke="none" 
	d="
M351.019501,150.163467 
	C346.844086,144.542908 347.408234,138.809265 352.597870,134.121674 
	C357.087311,139.604172 357.109131,145.183060 352.165222,150.074738 
	C351.445984,150.280045 351.228851,150.251831 351.019501,150.163467 
z"/>
<path fill="#8AD13D" opacity="1.000000" stroke="none" 
	d="
M305.748840,218.425888 
	C306.237305,217.778427 306.651184,217.509476 307.287628,217.127594 
	C314.029327,220.145859 316.304626,224.746872 314.723358,231.600800 
	C308.389862,229.387833 305.622742,225.474808 305.748840,218.425888 
z"/>
<path fill="#8CD241" opacity="1.000000" stroke="none" 
	d="
M300.311584,141.313477 
	C301.118683,138.613007 301.866333,136.313614 302.669342,133.843994 
	C309.049866,138.176224 309.570648,146.141022 304.154846,150.033737 
	C300.751953,148.264938 299.947540,145.258698 300.311584,141.313477 
z"/>
<path fill="#8AD13D" opacity="1.000000" stroke="none" 
	d="
M350.470154,218.176910 
	C350.750244,225.167603 348.336304,228.849930 341.565918,231.759766 
	C339.742004,225.560043 341.898834,220.485199 348.277222,217.658783 
	C349.466919,217.878952 349.968536,218.027939 350.470154,218.176910 
z"/>
<path fill="#8AD13D" opacity="1.000000" stroke="none" 
	d="
M288.796265,235.061951 
	C289.508026,234.698196 289.947968,234.652161 290.604065,234.651642 
	C295.348114,239.360870 295.017456,245.502945 289.968750,250.512955 
	C285.685272,245.546448 285.235138,240.830109 288.796265,235.061951 
z"/>
<path fill="#8CD241" opacity="1.000000" stroke="none" 
	d="
M364.805847,234.991257 
	C365.535461,234.686981 365.964447,234.610474 366.607544,234.584290 
	C371.052521,239.946793 370.846436,245.112686 366.188110,250.518051 
	C361.441162,245.908997 360.839966,240.443497 364.805847,234.991257 
z"/>
<path fill="#8AD13D" opacity="1.000000" stroke="none" 
	d="
M269.920227,248.068665 
	C271.108887,254.983383 267.780792,259.496765 260.094177,261.394165 
	C259.654938,254.101135 262.078247,250.028748 268.771667,247.898621 
	C269.570282,247.981262 269.745270,248.024963 269.920227,248.068665 
z"/>
<path fill="#CDEEC2" opacity="1.000000" stroke="none" 
	d="
M383.113098,187.616486 
	C380.902954,186.900253 378.513153,186.208984 376.679535,184.795929 
	C373.906708,182.659027 371.521423,180.019241 369.377258,176.364304 
	C371.226532,176.268845 373.075836,176.173386 375.568542,176.328491 
	C378.748993,177.410217 381.286011,178.241379 383.969574,179.394058 
	C385.433899,181.503845 380.185608,183.239227 384.073151,185.048203 
	C383.776245,185.804901 383.479340,186.561600 383.113098,187.616486 
z"/>
<path fill="#8AD13D" opacity="1.000000" stroke="none" 
	d="
M383.823029,179.072540 
	C381.286011,178.241379 378.748993,177.410217 375.961639,176.304230 
	C375.701447,175.480042 375.691589,174.930679 375.699890,174.106506 
	C380.967224,170.443649 385.711090,172.186874 390.199585,175.414230 
	C390.683380,175.762100 390.483398,177.061005 389.914917,177.982147 
	C387.427124,178.387878 385.625092,178.730209 383.823029,179.072540 
z"/>
<path fill="#CFEFC7" opacity="1.000000" stroke="none" 
	d="
M280.749176,176.035858 
	C282.646484,176.155243 284.543793,176.274628 287.002167,176.429321 
	C283.971344,181.951584 280.186066,185.184341 274.079895,185.653015 
	C273.423004,185.854721 272.901215,185.682800 272.462952,185.047363 
	C272.766388,182.757523 272.986328,180.931213 273.570251,179.130859 
	C276.205872,178.116501 278.477509,177.076187 280.749176,176.035858 
z"/>
<path fill="#8AD13D" opacity="1.000000" stroke="none" 
	d="
M280.727356,175.738464 
	C278.477509,177.076187 276.205872,178.116501 273.170044,179.070282 
	C270.089630,178.643906 267.773438,178.304092 265.457214,177.964279 
	C266.042236,174.532654 270.779785,171.608978 275.345093,172.060043 
	C276.935181,172.217133 278.475586,172.876785 280.380249,173.492462 
	C280.716339,174.265701 280.710938,174.853394 280.727356,175.738464 
z"/>
<path fill="#8FD24A" opacity="1.000000" stroke="none" 
	d="
M265.318451,178.308685 
	C267.773438,178.304092 270.089630,178.643906 272.806061,179.044312 
	C272.986328,180.931213 272.766388,182.757523 272.249420,184.867920 
	C267.641296,185.809464 263.590546,185.569351 260.096741,181.745880 
	C261.980743,180.599518 263.580231,179.626297 265.318451,178.308685 
z"/>
<path fill="#8FD24A" opacity="1.000000" stroke="none" 
	d="
M360.160248,157.443573 
	C360.004486,156.908829 359.848724,156.374084 359.687775,155.641388 
	C361.813751,153.436066 363.744934,151.128876 366.146667,149.527405 
	C367.732361,148.470062 369.994415,148.427063 373.072021,147.646118 
	C371.487396,151.047485 370.469940,153.231522 369.723907,155.715607 
	C369.995361,156.015686 370.032318,155.981277 369.690735,155.725403 
	C366.286194,156.127533 363.223236,156.785553 360.160248,157.443573 
z"/>
<path fill="#BBE1B5" opacity="1.000000" stroke="none" 
	d="
M369.825439,197.067200 
	C370.756134,195.839233 371.686768,194.611252 373.060150,192.799103 
	C377.332001,198.625717 373.110229,204.636459 373.878754,210.637222 
	C372.999359,210.951202 372.266296,210.841156 371.341064,210.167816 
	C370.065338,206.461792 368.981781,203.319046 368.108459,199.950043 
	C368.820953,198.838257 369.323212,197.952728 369.825439,197.067200 
z"/>
<path fill="#8FD24A" opacity="1.000000" stroke="none" 
	d="
M400.732819,210.214584 
	C394.248871,208.115448 392.072235,204.648514 393.774597,198.895905 
	C399.517365,200.484314 400.845917,204.732407 400.732819,210.214584 
z"/>
<path fill="#8FD24A" opacity="1.000000" stroke="none" 
	d="
M340.970703,197.287323 
	C341.072845,197.593613 341.116425,197.908035 341.044250,198.462326 
	C338.944855,199.939865 336.902618,201.185638 334.513977,202.642731 
	C333.238434,196.827301 334.757660,192.801041 340.058960,190.284119 
	C341.083832,192.338058 341.555328,194.196198 342.026794,196.054337 
	C342.026794,196.054337 341.993378,195.995392 341.791962,196.152100 
	C341.383911,196.634979 341.177307,196.961151 340.970703,197.287323 
z"/>
<path fill="#8FD24A" opacity="1.000000" stroke="none" 
	d="
M343.640381,208.148193 
	C344.411926,208.315979 344.843445,208.549744 345.478790,208.919556 
	C345.053589,215.051346 343.071686,217.223541 336.627014,218.609421 
	C336.815887,213.678452 338.450134,209.970703 343.640381,208.148193 
z"/>
<path fill="#8FD24A" opacity="1.000000" stroke="none" 
	d="
M315.609863,199.168503 
	C315.060150,198.604523 314.900665,198.220428 314.894470,197.249725 
	C315.726044,194.691422 316.404358,192.719696 317.082703,190.747971 
	C321.881409,193.731308 322.996826,196.601639 321.406525,202.455750 
	C319.555389,201.391800 317.777771,200.370087 315.609863,199.168503 
z"/>
<path fill="#8CD241" opacity="1.000000" stroke="none" 
	d="
M383.969574,179.394058 
	C385.625092,178.730209 387.427124,178.387878 389.618713,178.024323 
	C391.878906,179.217178 393.749573,180.431274 395.843384,181.790192 
	C392.781433,185.324341 389.032898,185.717529 384.509003,185.026779 
	C380.185608,183.239227 385.433899,181.503845 383.969574,179.394058 
z"/>
<path fill="#8CD241" opacity="1.000000" stroke="none" 
	d="
M286.823486,161.592010 
	C280.737640,162.086914 277.139069,159.503922 275.708282,152.788055 
	C278.730042,153.682999 281.303558,154.445221 284.396118,155.572754 
	C285.574280,157.387039 286.233368,158.835999 286.891968,160.502686 
	C286.888214,161.012436 286.865570,161.302979 286.823486,161.592010 
z"/>
<path fill="#8FD24A" opacity="1.000000" stroke="none" 
	d="
M310.413147,209.432404 
	C310.806610,208.828629 311.201477,208.575943 311.806305,208.214096 
	C317.495850,209.312897 319.074402,213.315460 319.691986,218.317963 
	C313.954285,217.785904 311.648834,215.582535 310.413147,209.432404 
z"/>
<path fill="#8FD24A" opacity="1.000000" stroke="none" 
	d="
M369.977417,156.033417 
	C373.262695,154.930466 376.565948,153.809753 380.485260,152.480026 
	C378.938568,159.143951 376.040039,161.171127 369.543030,160.603790 
	C369.105865,160.351913 369.067291,160.057098 369.106903,159.705734 
	C369.441772,158.229996 369.737030,157.105637 370.032318,155.981277 
	C370.032318,155.981277 369.995361,156.015686 369.977417,156.033417 
z"/>
<path fill="#8CD241" opacity="1.000000" stroke="none" 
	d="
M401.080322,218.192566 
	C403.168579,217.004822 405.256866,215.817062 407.673828,214.442352 
	C407.815552,221.270782 405.736298,223.866028 399.440033,224.683838 
	C399.727295,222.260849 400.403809,220.226715 401.080322,218.192566 
z"/>
<path fill="#8AD13D" opacity="1.000000" stroke="none" 
	d="
M285.564087,210.561462 
	C283.752045,204.935516 286.573608,201.297653 291.459961,198.591370 
	C292.256683,199.494858 292.693054,200.264526 293.111511,201.262726 
	C293.093597,201.491241 293.156036,201.945404 293.099426,202.340179 
	C293.015656,203.796753 292.988495,204.858551 292.633270,205.993851 
	C290.250031,207.516129 288.194885,208.964935 286.139771,210.413727 
	C286.139771,210.413742 285.739868,210.463043 285.564087,210.561462 
z"/>
<path fill="#8FD24A" opacity="1.000000" stroke="none" 
	d="
M286.169739,153.833786 
	C285.280548,152.188446 284.391357,150.543091 283.229248,148.392731 
	C288.432434,147.882339 291.761932,149.505447 294.176880,153.978333 
	C291.094177,159.214340 288.790649,154.928421 286.169739,153.833786 
z"/>
<path fill="#8CD241" opacity="1.000000" stroke="none" 
	d="
M408.269592,239.364929 
	C409.620483,240.484161 410.655975,241.393448 411.913300,242.497513 
	C405.484344,245.088303 402.644135,244.398056 398.482544,238.213226 
	C401.639771,238.527145 404.796997,238.841064 408.269592,239.364929 
z"/>
<path fill="#8AD13D" opacity="1.000000" stroke="none" 
	d="
M257.157867,240.381256 
	C253.778687,244.693756 249.580017,244.540405 244.126999,242.856903 
	C247.882278,238.782516 251.295120,236.605911 256.606995,239.154877 
	C257.059113,239.909286 257.108490,240.145279 257.157867,240.381256 
z"/>
<path fill="#8CD241" opacity="1.000000" stroke="none" 
	d="
M255.783813,225.074768 
	C250.305588,224.289490 248.789337,220.394440 247.774506,214.190994 
	C250.652039,215.819229 252.510818,216.871002 254.843323,218.376892 
	C255.882690,220.816467 256.448334,222.801926 256.705414,224.854858 
	C256.192505,224.973145 255.988159,225.023956 255.783813,225.074768 
z"/>
<path fill="#BBE1B5" opacity="1.000000" stroke="none" 
	d="
M400.770264,218.045380 
	C400.403809,220.226715 399.727295,222.260849 399.053528,224.675995 
	C399.056274,225.057007 399.008636,225.017960 398.761902,224.963348 
	C397.980560,225.000366 397.445984,225.091995 396.911377,225.183624 
	C395.443390,225.933609 393.975403,226.683594 392.151245,227.070953 
	C391.866547,225.459274 391.937927,224.210205 392.009338,222.961151 
	C393.188202,218.539230 396.186188,217.153717 400.770264,218.045380 
z"/>
<path fill="#BBE1B5" opacity="1.000000" stroke="none" 
	d="
M316.992249,190.494019 
	C316.404358,192.719696 315.726044,194.691422 315.015320,197.115601 
	C312.700348,194.526840 307.062378,193.824646 308.460266,188.227859 
	C308.611816,187.621033 308.921356,187.053665 309.323273,186.057266 
	C310.855499,187.202072 312.133240,188.156754 313.755249,189.052185 
	C314.099487,188.992950 313.997467,189.001877 314.004395,189.244308 
	C314.442902,189.298645 314.874481,189.110550 315.306061,188.922470 
	C315.837952,189.361679 316.369843,189.800873 316.992249,190.494019 
z"/>
<path fill="#8AD13D" opacity="1.000000" stroke="none" 
	d="
M263.181763,200.080368 
	C263.217834,205.199554 261.064606,208.690277 255.515503,209.846588 
	C255.165085,209.777542 255.232620,209.400940 255.345642,208.982849 
	C255.463242,208.028946 255.467834,207.493118 255.472427,206.957306 
	C257.411041,204.361298 259.349670,201.765274 261.824158,199.279846 
	C262.633911,199.620392 262.907837,199.850372 263.181763,200.080368 
z"/>
<path fill="#8AD13D" opacity="1.000000" stroke="none" 
	d="
M367.898193,200.176315 
	C368.981781,203.319046 370.065338,206.461792 371.089722,210.047974 
	C370.285370,210.197998 369.540131,209.904572 368.268250,209.183990 
	C364.491669,206.258286 363.139099,203.046722 364.401215,199.007965 
	C365.789856,199.417221 366.844025,199.796768 367.898193,200.176315 
z"/>
<path fill="#CDEEC2" opacity="1.000000" stroke="none" 
	d="
M285.926453,154.102753 
	C288.790649,154.928421 291.094177,159.214340 294.364563,154.281250 
	C294.811829,153.947205 295.173370,153.972122 295.806396,154.015961 
	C296.077850,155.847610 296.077850,157.660355 296.077850,160.569397 
	C295.739838,160.633392 294.320099,160.902206 292.160828,161.010284 
	C289.911682,160.661346 288.402069,160.473145 286.892456,160.284958 
	C286.233368,158.835999 285.574280,157.387039 284.755371,155.635406 
	C284.958130,155.012390 285.320618,154.692047 285.926453,154.102753 
z"/>
<path fill="#3E7E67" opacity="1.000000" stroke="none" 
	d="
M350.783630,150.495697 
	C351.228851,150.251831 351.445984,150.280045 351.830322,150.205872 
	C351.393250,152.864578 350.796753,155.565491 350.173218,158.694763 
	C348.749634,158.446396 347.353180,157.769684 345.712799,157.337036 
	C344.441986,155.200546 343.415070,152.820007 342.388153,150.439453 
	C342.767487,150.267761 343.146820,150.096054 343.526154,149.924362 
	C344.800903,151.497787 346.075653,153.071228 347.856537,155.269348 
	C348.953613,153.458801 349.750671,152.143356 350.783630,150.495697 
z"/>
<path fill="#BBE1B5" opacity="1.000000" stroke="none" 
	d="
M342.354675,195.936554 
	C341.555328,194.196198 341.083832,192.338058 340.405853,190.189682 
	C340.199371,189.899429 340.271149,189.924561 340.231232,189.925354 
	C342.268463,188.823654 344.345642,187.721130 346.715149,186.463440 
	C349.519531,191.363358 346.414856,193.715729 342.354675,195.936554 
z"/>
<path fill="#BBE1B5" opacity="1.000000" stroke="none" 
	d="
M364.066742,198.978256 
	C363.139099,203.046722 364.491669,206.258286 367.906219,209.011902 
	C367.863983,210.332642 367.657104,211.398285 367.162781,213.944412 
	C364.992371,211.308868 363.615570,209.637009 362.255188,207.289154 
	C361.965149,205.724930 361.658691,204.836670 361.308472,203.523041 
	C361.456604,201.456909 361.648438,199.816177 362.151489,198.454956 
	C362.997986,198.828796 363.533264,198.923141 364.043213,199.009094 
	C364.017944,199.000702 364.066742,198.978256 364.066742,198.978256 
z"/>
<path fill="#639B80" opacity="1.000000" stroke="none" 
	d="
M270.221375,247.905151 
	C269.745270,248.024963 269.570282,247.981262 269.136475,247.861603 
	C270.162567,244.940170 271.447540,242.094711 272.965881,239.048889 
	C273.548737,238.932968 273.898193,239.017410 274.777893,239.199875 
	C275.098969,242.715149 274.889801,246.132385 274.699158,249.247086 
	C273.202026,248.707458 271.862244,248.224548 270.221375,247.905151 
z"/>
<path fill="#BBE1B5" opacity="1.000000" stroke="none" 
	d="
M257.013977,224.787369 
	C256.448334,222.801926 255.882690,220.816467 255.165665,218.530365 
	C256.198059,218.162827 257.381805,218.095917 258.956207,218.509766 
	C259.581024,219.349213 259.815186,219.707886 260.049377,220.066574 
	C260.049377,220.066574 259.938293,220.055496 260.117310,220.289124 
	C260.890442,220.677750 261.484558,220.832733 262.078705,220.987732 
	C262.078705,220.987732 262.013245,220.994263 261.831360,221.290894 
	C262.511230,223.075989 263.372986,224.564423 264.234741,226.052872 
	C262.718201,226.112183 261.201660,226.171494 259.222900,225.782104 
	C258.178436,225.151398 257.596191,224.969376 257.013977,224.787369 
z"/>
<path fill="#CFEFC7" opacity="1.000000" stroke="none" 
	d="
M286.132263,210.798447 
	C288.194885,208.964935 290.250031,207.516129 292.962036,206.099609 
	C294.423187,205.762177 295.227539,205.392471 296.077454,205.077621 
	C296.123016,205.132477 296.215485,205.241119 296.215485,205.241119 
	C293.920135,207.848129 291.692780,210.524506 289.217987,212.948303 
	C288.985840,213.175674 287.193024,211.809494 286.132263,210.798447 
z"/>
<path fill="#639B80" opacity="1.000000" stroke="none" 
	d="
M387.004486,247.495392 
	C386.928894,247.887741 386.747681,247.951569 386.293518,248.108032 
	C384.771973,248.291748 383.523407,248.382858 381.024231,248.565231 
	C381.024231,246.794006 381.024231,243.844452 381.310089,240.249084 
	C381.957703,239.302246 382.319458,239.001251 382.681213,238.700226 
	C384.087128,241.522430 385.493011,244.344635 387.004486,247.495392 
z"/>
<path fill="#639B80" opacity="1.000000" stroke="none" 
	d="
M286.891968,160.502686 
	C288.402069,160.473145 289.911682,160.661346 291.759644,161.022018 
	C292.320312,162.076462 292.542603,162.958405 293.020142,164.085938 
	C290.555389,164.851379 287.835419,165.371262 285.115448,165.891144 
	C285.079834,165.465775 285.044220,165.040405 285.008575,164.615021 
	C285.820374,163.692154 286.632141,162.769287 287.133698,161.719208 
	C286.865570,161.302979 286.888214,161.012436 286.891968,160.502686 
z"/>
<path fill="#3E7E67" opacity="1.000000" stroke="none" 
	d="
M257.585388,240.323212 
	C257.108490,240.145279 257.059113,239.909286 256.962952,239.314682 
	C257.726471,238.632065 258.536713,238.308075 259.934509,238.178864 
	C261.408234,238.361954 262.294464,238.350281 263.180664,238.338608 
	C262.986237,237.790985 262.791779,237.243378 262.597351,236.695786 
	C263.488831,236.095596 264.380310,235.495392 265.594849,234.845856 
	C265.938263,235.385712 265.958649,235.974930 266.031494,237.003265 
	C264.846802,240.240570 263.609711,243.038773 261.984161,246.715561 
	C260.742035,243.761078 263.781525,238.798965 257.585388,240.323212 
z"/>
<path fill="#1C6350" opacity="1.000000" stroke="none" 
	d="
M361.840271,198.175430 
	C361.648438,199.816177 361.456604,201.456909 360.898285,203.578339 
	C360.257996,204.092361 359.984161,204.125702 359.710297,204.159058 
	C358.862549,201.666382 358.014832,199.173706 357.363892,196.131500 
	C357.645447,195.112991 357.730225,194.643982 357.815002,194.174988 
	C357.979156,194.000381 358.143280,193.825760 358.806213,193.568848 
	C360.205170,194.319397 361.105316,195.152252 361.964844,196.257263 
	C361.896240,197.078094 361.868256,197.626770 361.840271,198.175430 
z"/>
<path fill="#1C6350" opacity="1.000000" stroke="none" 
	d="
M391.817017,241.080322 
	C390.072845,239.333038 388.328674,237.585739 386.415100,235.587982 
	C386.376709,235.103394 386.507751,234.869263 387.159271,234.313889 
	C388.095306,233.997406 388.510864,234.002151 388.926453,234.006897 
	C391.604950,235.481857 394.283417,236.956833 398.144012,239.082764 
	C395.839478,239.731644 394.623657,240.073959 392.898712,240.717957 
	C392.198730,241.039841 392.007874,241.060074 391.817017,241.080322 
z"/>
<path fill="#CDEEC2" opacity="1.000000" stroke="none" 
	d="
M266.149567,210.339020 
	C267.447906,210.052429 268.890503,210.095886 270.687378,210.110321 
	C270.053711,212.627502 269.065796,215.173706 268.077881,217.719910 
	C267.633209,217.549911 267.188538,217.379913 266.743896,217.209930 
	C266.593872,215.029648 266.443848,212.849380 266.149567,210.339020 
z"/>
<path fill="#639B80" opacity="1.000000" stroke="none" 
	d="
M369.067291,160.057098 
	C369.067291,160.057098 369.105865,160.351913 369.146576,160.494766 
	C368.493896,161.277054 367.800507,161.916473 366.827393,162.813843 
	C368.233978,163.470306 369.267700,163.952774 370.301422,164.435226 
	C370.211060,164.876099 370.120667,165.316956 370.030304,165.757828 
	C367.751434,165.474045 365.472534,165.190247 362.971558,164.620285 
	C363.147491,163.506195 363.545532,162.678284 364.283936,161.295837 
	C366.105286,160.513245 367.586304,160.285172 369.067291,160.057098 
z"/>
<path fill="#3E7E67" opacity="1.000000" stroke="none" 
	d="
M275.625671,215.988983 
	C276.345367,218.422775 276.802826,221.038696 277.027405,223.882416 
	C276.655304,222.838287 276.516113,221.566330 276.339294,219.950378 
	C274.874756,220.135437 273.561707,220.301361 271.754425,220.529739 
	C273.131409,218.866730 274.247406,217.518906 275.625671,215.988983 
z"/>
<path fill="#286C58" opacity="1.000000" stroke="none" 
	d="
M379.261108,223.625671 
	C379.398712,221.703888 379.632233,219.373322 380.100037,216.730392 
	C381.682983,217.313477 383.031586,218.208939 384.380188,219.104401 
	C384.202148,219.607376 384.024078,220.110367 383.846008,220.613342 
	C380.508636,219.114288 378.720184,219.606598 379.261108,223.625671 
z"/>
<path fill="#639B80" opacity="1.000000" stroke="none" 
	d="
M278.786926,240.581680 
	C279.218109,239.864578 279.636230,239.529037 280.327972,238.893997 
	C281.200409,241.289017 281.799225,243.983536 282.398010,246.678070 
	C281.824188,246.832245 281.250397,246.986420 280.676575,247.140594 
	C280.042328,245.081482 279.408112,243.022354 278.786926,240.581680 
z"/>
<path fill="#639B80" opacity="1.000000" stroke="none" 
	d="
M375.179810,238.867401 
	C375.797089,238.983994 376.159698,239.369827 376.855957,239.970795 
	C376.600250,242.436676 376.010895,244.687424 375.421539,246.938187 
	C374.889282,246.849304 374.357056,246.760437 373.824799,246.671555 
	C374.191589,244.159927 374.558380,241.648285 375.179810,238.867401 
z"/>
<path fill="#639B80" opacity="1.000000" stroke="none" 
	d="
M352.427826,219.142487 
	C353.004639,218.723434 353.447662,218.690186 354.112488,218.691040 
	C354.222656,220.722458 354.110962,222.719742 353.999268,224.717041 
	C353.518677,224.707779 353.038055,224.698532 352.557465,224.689270 
	C352.469635,222.968948 352.381836,221.248611 352.427826,219.142487 
z"/>
<path fill="#3E7E67" opacity="1.000000" stroke="none" 
	d="
M263.446960,199.912674 
	C262.907837,199.850372 262.633911,199.620392 262.163422,199.208130 
	C263.011566,197.621429 264.056244,196.217010 265.398865,194.677292 
	C266.036163,194.939240 266.375458,195.336487 267.015747,195.985107 
	C266.115204,197.405975 264.913666,198.575470 263.446960,199.912674 
z"/>
<path fill="#8FD24A" opacity="1.000000" stroke="none" 
	d="
M358.255646,153.484131 
	C358.206390,153.778076 357.968445,153.941452 357.968445,153.941452 
	C357.968445,153.941452 357.681366,153.909119 357.569458,153.813278 
	C357.167450,152.704514 356.877319,151.691574 356.587219,150.678650 
	C357.001740,150.581451 357.416260,150.484268 357.830780,150.387070 
	C357.988831,151.321442 358.146881,152.255814 358.255646,153.484131 
z"/>
<path fill="#3E7E67" opacity="1.000000" stroke="none" 
	d="
M264.574799,226.044785 
	C263.372986,224.564423 262.511230,223.075989 261.835083,221.258209 
	C263.411011,222.344742 264.801331,223.760605 266.229584,225.533264 
	C265.816620,225.938965 265.365723,225.987823 264.574799,226.044785 
z"/>
<path fill="#286C58" opacity="1.000000" stroke="none" 
	d="
M391.676453,223.058853 
	C391.937927,224.210205 391.866547,225.459274 391.744843,227.175690 
	C390.981781,227.765152 390.269012,227.887238 389.282227,228.005035 
	C389.786652,226.386002 390.565125,224.771271 391.676453,223.058853 
z"/>
<path fill="#3E7E67" opacity="1.000000" stroke="none" 
	d="
M349.537292,163.298676 
	C350.053955,165.494003 349.217163,165.921448 345.071167,164.985260 
	C346.355682,164.402985 347.824005,164.049454 349.537292,163.298676 
z"/>
<path fill="#3E7E67" opacity="1.000000" stroke="none" 
	d="
M256.705414,224.854858 
	C257.596191,224.969376 258.178436,225.151398 258.886719,225.616959 
	C258.867279,226.874252 258.721710,227.847977 258.344025,228.923767 
	C257.421326,227.914185 256.730743,226.802536 255.911987,225.382828 
	C255.988159,225.023956 256.192505,224.973145 256.705414,224.854858 
z"/>
<path fill="#CDEEC2" opacity="1.000000" stroke="none" 
	d="
M386.923889,190.669678 
	C385.752960,190.196808 384.512268,189.386414 383.181000,188.263702 
	C384.345001,188.744980 385.599548,189.538574 386.923889,190.669678 
z"/>
<path fill="#639B80" opacity="1.000000" stroke="none" 
	d="
M381.608398,233.950531 
	C381.090149,233.381577 380.899658,232.706009 380.709167,232.030441 
	C381.497528,232.314911 382.285858,232.599396 383.157104,233.146912 
	C382.805389,233.554596 382.370758,233.699265 381.608398,233.950531 
z"/>
<path fill="#CDEEC2" opacity="1.000000" stroke="none" 
	d="
M271.399597,209.916870 
	C271.681183,208.668854 272.291412,207.303802 273.161133,205.739777 
	C272.856506,206.960480 272.292389,208.380157 271.399597,209.916870 
z"/>
<path fill="#3E7E67" opacity="1.000000" stroke="none" 
	d="
M310.680176,164.661118 
	C309.786224,164.843048 308.467102,164.970795 306.989166,164.862320 
	C307.971893,164.619705 309.113434,164.613312 310.680176,164.661118 
z"/>
<path fill="#639B80" opacity="1.000000" stroke="none" 
	d="
M373.259094,223.601074 
	C373.761047,223.579010 374.697052,223.519028 375.506653,223.695251 
	C374.817902,223.808716 374.255524,223.685944 373.259094,223.601074 
z"/>
<path fill="#3E7E67" opacity="1.000000" stroke="none" 
	d="
M359.715149,204.512436 
	C359.984161,204.125702 360.257996,204.092361 360.942017,204.003723 
	C361.658691,204.836670 361.965149,205.724930 362.146545,206.983459 
	C361.254303,206.524445 360.487183,205.695129 359.715149,204.512436 
z"/>
<path fill="#1C6350" opacity="1.000000" stroke="none" 
	d="
M262.311096,236.763580 
	C262.791779,237.243378 262.986237,237.790985 263.180664,238.338608 
	C262.294464,238.350281 261.408234,238.361954 260.261719,238.188202 
	C260.675873,237.612305 261.350372,237.221848 262.311096,236.763580 
z"/>
<path fill="#BBE1B5" opacity="1.000000" stroke="none" 
	d="
M310.868225,181.914703 
	C310.468048,181.321808 310.097382,180.386688 309.905060,179.236221 
	C310.354858,179.871414 310.626312,180.721939 310.868225,181.914703 
z"/>
<path fill="#CDEEC2" opacity="1.000000" stroke="none" 
	d="
M273.903687,205.564957 
	C274.155060,204.894592 274.750824,204.382843 275.346619,203.871078 
	C275.522736,204.407074 275.698853,204.943054 275.802429,205.754944 
	C275.235931,205.928406 274.742004,205.825974 273.903687,205.564957 
z"/>
<path fill="#3E7E67" opacity="1.000000" stroke="none" 
	d="
M307.022461,154.609985 
	C306.641327,154.966522 306.141785,155.010712 305.266479,155.035553 
	C304.776917,154.406387 304.663116,153.796600 304.549286,153.186798 
	C305.334229,153.557083 306.119171,153.927353 307.022461,154.609985 
z"/>
<path fill="#639B80" opacity="1.000000" stroke="none" 
	d="
M375.680817,226.047165 
	C376.076141,226.470291 376.373688,227.175415 376.565430,228.161743 
	C376.167450,227.738342 375.875214,227.033752 375.680817,226.047165 
z"/>
<path fill="#CFEFC7" opacity="1.000000" stroke="none" 
	d="
M297.077942,202.251114 
	C297.077942,202.251114 297.400604,202.180511 297.560242,202.222305 
	C297.412872,203.119354 297.105865,203.974594 296.507202,205.035492 
	C296.215485,205.241119 296.123016,205.132477 296.122864,204.701599 
	C296.441101,203.597519 296.759521,202.924316 297.077942,202.251114 
z"/>
<path fill="#3E7E67" opacity="1.000000" stroke="none" 
	d="
M310.982391,155.693146 
	C310.368042,155.814758 309.870483,155.599075 309.184753,155.185669 
	C309.697449,155.110580 310.398346,155.233215 310.982391,155.693146 
z"/>
<path fill="#CDEEC2" opacity="1.000000" stroke="none" 
	d="
M255.269318,207.059525 
	C255.467834,207.493118 255.463242,208.028946 255.310501,208.794785 
	C255.130295,208.403793 255.098267,207.782761 255.269318,207.059525 
z"/>
<path fill="#3E7E67" opacity="1.000000" stroke="none" 
	d="
M357.512604,194.112152 
	C357.730225,194.643982 357.645447,195.112991 357.394592,195.760773 
	C356.890198,195.473267 356.551849,195.006973 356.095093,194.276291 
	C356.387848,194.024368 356.799011,194.036835 357.512604,194.112152 
z"/>
<path fill="#3E7E67" opacity="1.000000" stroke="none" 
	d="
M353.358765,208.806549 
	C352.968811,208.378265 352.644196,207.653183 352.415039,206.623962 
	C352.815033,207.049805 353.119568,207.779770 353.358765,208.806549 
z"/>
<path fill="#3E7E67" opacity="1.000000" stroke="none" 
	d="
M351.972107,196.737915 
	C351.795441,196.331955 351.804993,195.712112 352.003143,194.989655 
	C352.180603,195.432709 352.169464,195.978378 351.972107,196.737915 
z"/>
<path fill="#286C58" opacity="1.000000" stroke="none" 
	d="
M388.916443,233.680664 
	C388.510864,234.002151 388.095306,233.997406 387.369934,233.970917 
	C387.572937,233.357697 388.085785,232.766220 388.909027,232.131897 
	C389.115112,232.510849 389.010803,232.932632 388.916443,233.680664 
z"/>
<path fill="#639B80" opacity="1.000000" stroke="none" 
	d="
M273.290863,233.100830 
	C273.693329,233.066071 274.380127,233.204285 274.930725,233.572632 
	C274.388123,233.626450 273.981628,233.450134 273.290863,233.100830 
z"/>
<path fill="#286C58" opacity="1.000000" stroke="none" 
	d="
M396.947754,225.687103 
	C397.445984,225.091995 397.980560,225.000366 398.788757,224.948334 
	C398.596222,225.643631 398.130066,226.299316 397.376007,227.074921 
	C397.053436,226.860092 397.018768,226.525345 396.947754,225.687103 
z"/>
<path fill="#639B80" opacity="1.000000" stroke="none" 
	d="
M350.887878,218.012039 
	C349.968536,218.027939 349.466919,217.878952 348.602051,217.563156 
	C348.238770,217.396347 348.337616,217.289642 348.411224,217.285095 
	C349.501678,217.179749 350.518524,217.078949 351.828979,217.226028 
	C351.850311,217.598328 351.577972,217.722748 350.887878,218.012039 
z"/>
<path fill="#286C58" opacity="1.000000" stroke="none" 
	d="
M396.290527,229.990555 
	C396.243927,229.691116 396.485657,229.454620 396.940735,229.080200 
	C397.335022,229.144333 397.515961,229.346405 397.696899,229.548492 
	C397.324219,229.716827 396.951508,229.885162 396.290527,229.990555 
z"/>
<path fill="#1C6350" opacity="1.000000" stroke="none" 
	d="
M382.627930,238.453445 
	C382.319458,239.001251 381.957703,239.302246 381.302429,239.797668 
	C380.840546,239.651535 380.672180,239.310989 380.490845,238.685074 
	C380.721649,238.235703 380.965363,238.071701 381.582031,237.672302 
	C382.161591,237.693512 382.368134,237.950089 382.627930,238.453445 
z"/>
<path fill="#3E7E67" opacity="1.000000" stroke="none" 
	d="
M261.913971,220.695923 
	C261.484558,220.832733 260.890442,220.677750 260.121399,220.233459 
	C260.547424,220.097488 261.148315,220.250809 261.913971,220.695923 
z"/>
<path fill="#3E7E67" opacity="1.000000" stroke="none" 
	d="
M259.980652,219.737915 
	C259.815186,219.707886 259.581024,219.349213 259.143188,218.734528 
	C259.263702,218.788757 259.587830,219.098999 259.980652,219.737915 
z"/>
<path fill="#CFEFC7" opacity="1.000000" stroke="none" 
	d="
M273.973633,186.275116 
	C274.141693,186.320892 274.308350,186.596634 274.230316,186.918579 
	C273.985626,186.964798 273.972229,186.505066 273.973633,186.275116 
z"/>
<path fill="#1C6350" opacity="1.000000" stroke="none" 
	d="
M296.637085,231.209991 
	C296.590179,231.219635 296.915771,231.237320 296.915771,231.237320 
	C296.915771,231.237320 296.790985,231.140045 296.738190,231.218063 
	C296.685394,231.296082 296.683960,231.200363 296.637085,231.209991 
z"/>
<path fill="#1C6350" opacity="1.000000" stroke="none" 
	d="
M314.980347,188.751190 
	C314.874481,189.110550 314.442902,189.298645 314.001526,189.193192 
	C314.212708,188.793060 314.433655,188.686493 314.980347,188.751190 
z"/>
<path fill="#1C6350" opacity="1.000000" stroke="none" 
	d="
M363.362122,217.775116 
	C363.413635,217.796967 363.109039,217.839615 363.109039,217.839615 
	C363.109039,217.839615 363.359497,217.807602 363.345337,217.725433 
	C363.331146,217.643280 363.310608,217.753265 363.362122,217.775116 
z"/>
<path fill="#1C6350" opacity="1.000000" stroke="none" 
	d="
M292.648346,217.575165 
	C292.638245,217.520859 292.689301,217.807114 292.689301,217.807114 
	C292.689301,217.807114 292.732971,217.641220 292.640503,217.634445 
	C292.548004,217.627670 292.658447,217.629456 292.648346,217.575165 
z"/>
<path fill="#286C58" opacity="1.000000" stroke="none" 
	d="
M391.927612,241.350418 
	C392.007874,241.060074 392.198730,241.039841 392.677032,241.008484 
	C392.655731,241.205078 392.346985,241.412796 391.927612,241.350418 
z"/>
<path fill="#CDEEC2" opacity="1.000000" stroke="none" 
	d="
M276.109344,208.109955 
	C276.326477,208.102692 276.610504,208.298721 276.791931,208.744659 
	C276.479126,208.796982 276.308105,208.569885 276.109344,208.109955 
z"/>
<path fill="#1C6350" opacity="1.000000" stroke="none" 
	d="
M281.719543,168.323700 
	C281.676300,168.301041 281.748383,168.245346 281.718445,168.327515 
	C281.688507,168.409698 281.762756,168.346344 281.719543,168.323700 
z"/>
<path fill="#CDEEC2" opacity="1.000000" stroke="none" 
	d="
M276.575928,214.154358 
	C276.662811,214.309708 276.603851,214.618256 276.282715,214.984589 
	C276.105103,214.768478 276.241608,214.523560 276.575928,214.154358 
z"/>
<path fill="#286C58" opacity="1.000000" stroke="none" 
	d="
M218.936584,355.204773 
	C220.869003,351.372284 228.843521,350.836548 230.487625,354.127289 
	C231.055756,355.264465 230.913437,358.043640 230.469269,358.191528 
	C227.482513,359.186035 224.338135,359.980530 221.217896,360.093170 
	C220.508774,360.118744 219.693878,357.213196 218.936584,355.204773 
z"/>
<path fill="#286C58" opacity="1.000000" stroke="none" 
	d="
M389.448181,355.185486 
	C391.643646,349.675018 395.824341,352.414612 399.100342,352.696075 
	C400.040497,352.776855 401.710510,355.924988 401.371216,357.231995 
	C400.214386,361.688629 396.143494,360.065247 393.054291,360.403015 
	C389.158661,360.828918 389.347046,358.175171 389.448181,355.185486 
z"/>
<path fill="#1C6350" opacity="1.000000" stroke="none" 
	d="
M335.249756,360.276489 
	C334.273224,358.036926 332.885803,355.514984 333.541534,353.753754 
	C333.958466,352.633881 337.448822,352.137268 339.488342,352.295715 
	C341.360840,352.441193 343.976044,353.367218 344.772644,354.786438 
	C346.259796,357.435944 344.644867,359.621887 341.651581,360.137634 
	C339.716248,360.471069 337.689697,360.275024 335.249756,360.276489 
z"/>
<path fill="#D3F2CC" opacity="1.000000" stroke="none" 
	d="
M362.005463,195.985107 
	C361.105316,195.152252 360.205170,194.319397 359.052185,193.306671 
	C354.678345,189.205414 350.939789,185.118896 352.533020,178.706100 
	C362.418457,180.060974 369.424561,187.136230 369.877930,196.652527 
	C369.323212,197.952728 368.820953,198.838257 368.108459,199.950043 
	C366.844025,199.796768 365.789856,199.417221 364.401215,199.007965 
	C364.066742,198.978256 364.017944,199.000702 363.945496,198.709259 
	C363.250519,197.606918 362.627991,196.796021 362.005463,195.985107 
z"/>
<path fill="#E0FCD4" opacity="1.000000" stroke="none" 
	d="
M369.106903,159.705750 
	C367.586304,160.285172 366.105286,160.513245 364.309570,160.936096 
	C362.221466,160.967041 360.448120,160.803207 358.069275,160.583435 
	C358.770081,159.459427 359.217560,158.741730 359.912659,157.733795 
	C363.223236,156.785553 366.286194,156.127533 369.690735,155.725403 
	C369.737030,157.105637 369.441772,158.229996 369.106903,159.705750 
z"/>
<path fill="#3E7E67" opacity="1.000000" stroke="none" 
	d="
M296.969299,201.965851 
	C296.759521,202.924316 296.441101,203.597519 296.077271,204.646729 
	C295.227539,205.392471 294.423187,205.762177 293.290100,206.026123 
	C292.988495,204.858551 293.015656,203.796753 293.171844,202.231812 
	C293.399353,201.471405 293.342194,201.239914 293.129456,201.034195 
	C292.693054,200.264526 292.256683,199.494858 291.718689,198.409409 
	C291.888916,197.795731 292.160797,197.497818 292.718323,197.100357 
	C294.289551,198.560745 295.575104,200.120667 296.969299,201.965851 
z"/>
<path fill="#BBE1B5" opacity="1.000000" stroke="none" 
	d="
M341.201935,197.108429 
	C341.177307,196.961151 341.383911,196.634979 341.822571,196.137604 
	C341.847473,196.287460 341.640320,196.608505 341.201935,197.108429 
z"/>
<path fill="#1C6350" opacity="1.000000" stroke="none" 
	d="
M293.111511,201.262726 
	C293.342194,201.239914 293.399353,201.471405 293.228455,201.837036 
	C293.156036,201.945404 293.093597,201.491241 293.111511,201.262726 
z"/>
<path fill="#3E7E67" opacity="1.000000" stroke="none" 
	d="
M361.964844,196.257263 
	C362.627991,196.796021 363.250519,197.606918 363.970764,198.717651 
	C363.533264,198.923141 362.997986,198.828796 362.151489,198.454956 
	C361.868256,197.626770 361.896240,197.078094 361.964844,196.257263 
z"/>
</svg>